<svg width="36" height="44" viewBox="0 0 36 44" fill="none" xmlns="http://www.w3.org/2000/svg">
<path fill-rule="evenodd" clip-rule="evenodd" d="M8.407 3.37093C4.506 5.18793 1.019 7.44493 0.657 8.38693C0.296 9.32893 0 13.5209 0 17.7019C0 23.3499 0.533 26.4059 2.073 29.5869C4.8 35.2209 14.311 43.9359 17.733 43.9359C20.959 43.9359 27.558 38.9329 32.059 33.0749C35.381 28.7509 35.512 28.2459 35.834 18.4969C36.126 9.68293 35.935 8.19993 34.334 6.83993C31.726 4.62393 20.282 -0.0760653 17.684 0.000934703C16.483 0.0369347 12.308 1.55293 8.407 3.37093ZM27.534 5.02393L34 7.95593V17.8559V27.7559L30.07 32.7279C25.319 38.7379 21.036 41.9359 17.736 41.9359C14.854 41.9359 7.105 35.4599 4.027 30.4789C2.202 27.5259 1.964 25.7979 2.213 17.3109L2.5 7.54193L10 4.27593C18.143 0.730934 18.057 0.726933 27.534 5.02393ZM15.04 10.3879C13.485 12.2609 14.028 14.9249 16.25 16.3239C19.715 18.5059 23.617 13.5889 20.96 10.3879C19.416 8.52693 16.584 8.52693 15.04 10.3879ZM20 12.9359C20 15.2939 17.461 16.1969 15.951 14.3769C15.023 13.2589 15.023 12.6129 15.951 11.4949C17.461 9.67493 20 10.5779 20 12.9359ZM12.023 22.5699C9.725 24.5039 8.974 25.8989 9.196 27.8199C9.493 30.3729 9.694 30.4429 17.596 30.7239C27.377 31.0719 29.254 29.8679 26.419 25.0679C23.109 19.4639 16.978 18.4009 12.023 22.5699ZM23.927 24.5709C25.067 26.0199 26 27.5949 26 28.0709C26 28.5469 22.4 28.9359 18 28.9359C9.296 28.9359 8.428 28.2379 12.174 24.2499C15.329 20.8919 21.159 21.0509 23.927 24.5709Z" fill="black"/>
</svg>
