<svg width="44" height="44" viewBox="0 0 44 44" fill="none" xmlns="http://www.w3.org/2000/svg">
<path fill-rule="evenodd" clip-rule="evenodd" d="M10.2455 0.110015L9.90363 -0.00157639L9.82161 0.348533C9.43366 2.00457 9.02388 3.13053 8.20424 3.93861C7.38673 4.7446 6.11278 5.28006 3.88235 5.6192L3.61882 5.65927L3.60248 5.92534C3.01474 15.5006 3.27958 20.6147 4.13765 24.4162C3.97303 24.5513 3.80612 24.6972 3.63476 24.8551L3.54751 24.9356L3.50942 25.0479C3.04723 26.412 2.87048 27.3363 2.74877 28.8459H0.296875V29.7767H3.18058H5.94108C5.98331 29.8757 6.02593 29.975 6.06892 30.0746L6.06868 30.0747L6.07436 30.0866C8.17667 34.4718 10.2682 37.1037 12.8037 38.9408C15.3296 40.7709 18.2726 41.7931 22.0202 43.0005L22.1121 43.0301L22.2054 43.0056C26.4619 41.8873 29.5269 40.6526 32.0503 38.6878C34.5747 36.7222 36.5297 34.0472 38.6067 30.0975L38.6203 30.0718L38.6291 30.0441C38.6576 29.9546 38.6859 29.8655 38.7139 29.7767H41.1124H43.9961V28.8459H41.5442C41.4225 27.3363 41.2457 26.412 40.7835 25.0479L40.7455 24.9356L40.6582 24.8551C40.4936 24.7034 40.3331 24.5628 40.1748 24.4322C41.3429 19.1169 41.4186 14.1569 40.4169 5.90578L40.388 5.66834L40.1534 5.62177C38.5633 5.30615 37.5131 4.84676 36.6737 4.05627C35.825 3.25714 35.1612 2.09182 34.4041 0.295613L34.2831 0.00843829L33.9894 0.112764C29.4494 1.72565 25.8958 2.49564 22.2964 2.48189C18.6948 2.46813 15.0231 1.66968 10.2455 0.110015ZM39.5944 23.9923C40.6686 18.9363 40.7378 14.1326 39.7899 6.22088C38.2548 5.89187 37.1379 5.40029 36.221 4.53692C35.3182 3.68673 34.6364 2.50047 33.9178 0.838159C29.4749 2.39562 25.9178 3.15595 22.2939 3.1421C18.6806 3.1283 15.0237 2.3449 10.3805 0.847913C10.0087 2.34728 9.56376 3.5254 8.66776 4.40876C7.73914 5.32429 6.37117 5.88087 4.24538 6.23022C3.69449 15.3737 3.93901 20.3346 4.71761 23.9792C4.88607 23.8639 5.05485 23.7587 5.22638 23.6622C4.46812 20.1508 4.24753 15.4209 4.78174 6.77799L4.80494 6.40269L5.17673 6.34655C7.24267 6.0346 8.38876 5.54611 9.11418 4.83586C9.84208 4.12319 10.2156 3.12263 10.5762 1.59433L10.6921 1.10273L11.1726 1.2585C15.6143 2.69845 19.0152 3.43134 22.3452 3.44397C25.6722 3.45659 28.962 2.7503 33.1796 1.26233L33.592 1.11684L33.7628 1.51936C34.4659 3.1758 35.0733 4.2271 35.8379 4.94213C36.5898 5.64531 37.5359 6.06137 39.0008 6.35012L39.3318 6.41537L39.3727 6.75023C40.2938 14.2848 40.2395 18.8691 39.1889 23.7327C39.3251 23.8132 39.4598 23.8995 39.5944 23.9923ZM38.0214 29.7767H37.5723H37.3676C35.5103 33.1853 33.7199 35.538 31.4183 37.2877C29.0641 39.0774 26.2126 40.2073 22.2992 41.2283L22.1686 41.2624L22.04 41.2213C18.6042 40.122 15.8706 39.1819 13.5196 37.5201C11.1999 35.8803 9.28338 33.5621 7.38355 29.7767H6.72069H6.65942C6.66379 29.7868 6.66816 29.7969 6.67254 29.8071C8.74353 34.1254 10.773 36.6541 13.1911 38.4061C15.6001 40.1515 18.418 41.145 22.1308 42.3425C26.3035 41.2399 29.2424 40.0374 31.6447 38.1669C34.0585 36.2874 35.9575 33.7122 38.0089 29.8159C38.013 29.8028 38.0172 29.7897 38.0214 29.7767ZM38.4889 7.19393C39.3464 14.3523 39.287 18.7351 38.3281 23.3064C37.6423 23.0271 36.8906 22.8502 35.9619 22.6823L35.6161 22.6199L35.4614 22.9354C35.1694 23.5307 34.9233 23.9977 34.6285 24.4538C34.3503 24.884 34.0234 25.3128 33.5655 25.8315C33.1621 25.3821 32.859 24.9795 32.5774 24.5384C32.286 24.082 32.014 23.579 31.6746 22.9257L31.5172 22.6227L31.1809 22.682C30.3202 22.8336 29.6116 22.9995 28.927 23.2833C28.2667 23.557 27.6472 23.9326 26.9383 24.4854C26.4761 24.3726 25.9863 24.2751 25.4534 24.1809L25.1166 24.1214L24.9593 24.4251C24.5836 25.1502 24.2633 25.7513 23.9423 26.2936C23.4007 25.9022 22.7042 25.7229 22.0424 25.7104C21.3654 25.6976 20.6485 25.8573 20.0786 26.2154C19.7594 25.6791 19.4671 25.1122 19.1358 24.4348L18.9812 24.1185L18.6348 24.1813C18.1612 24.2671 17.7214 24.3543 17.3076 24.4488C16.6182 23.9159 16.0116 23.5509 15.366 23.2833C14.6813 22.9995 13.9728 22.8336 13.1121 22.682L12.7758 22.6227L12.6184 22.9257C12.279 23.579 12.007 24.082 11.7156 24.5384C11.434 24.9795 11.1309 25.3821 10.7275 25.8315C10.2695 25.3128 9.94262 24.884 9.66447 24.4538C9.36966 23.9977 9.12356 23.5307 8.83161 22.9354L8.67687 22.6199L8.33104 22.6823C7.45938 22.8399 6.74361 23.0054 6.09183 23.2561C5.40709 19.9426 5.19488 15.4177 5.68803 7.2072C7.60965 6.88086 8.88536 6.36244 9.7653 5.5009C10.5978 4.68583 11.0214 3.61469 11.3617 2.29676C15.6167 3.65017 18.9964 4.36199 22.3417 4.37468C25.7021 4.38743 28.9964 3.6947 33.0792 2.28325C33.7299 3.75729 34.3628 4.83696 35.2022 5.62191C36.0614 6.42541 37.0992 6.88621 38.4889 7.19393ZM32.9696 29.7767H36.3046C34.5708 32.8788 32.9148 34.981 30.855 36.5468C28.6692 38.2085 25.9918 39.2943 22.1948 40.2936C18.8083 39.2082 16.2463 38.3078 14.0568 36.76C13.023 36.0293 12.0653 35.1486 11.1445 34.0243H11.1758H16.2777H27.3689H32.9145H33.4028L33.3793 33.5365C33.306 32.0148 33.217 30.8994 32.9696 29.7767ZM11.1868 29.7767C10.9483 30.8695 10.8211 31.9678 10.7149 33.4783C9.93835 32.452 9.18419 31.2376 8.42812 29.7767H11.1868ZM21.9428 10.9919C23.6453 11.0057 25.4857 11.613 26.415 12.8983L26.5033 13.0204V13.171V16.9216C26.6544 16.9574 26.7932 17.021 26.9056 17.0887C27.2115 17.2732 27.4911 17.5777 27.655 17.9438C27.8222 18.3174 27.8774 18.7783 27.6836 19.2402C27.5192 19.6318 27.1971 19.9738 26.7178 20.2513C26.6488 21.5734 26.0994 22.6125 25.2856 23.332C24.4229 24.0947 23.2858 24.4794 22.162 24.4939C21.0382 24.5085 19.896 24.1529 19.0282 23.3932C18.2227 22.6881 17.681 21.658 17.5981 20.3281C16.9986 20.142 16.5688 19.8503 16.3193 19.4618C16.0163 18.9897 16.039 18.4686 16.2049 18.0451C16.3672 17.6306 16.6783 17.271 17.034 17.0587C17.1917 16.9645 17.3835 16.8872 17.5869 16.8609V16.8593V16.8501V16.841V16.8318V16.8226V16.8133V16.8041V16.7947V16.7854V16.776V16.7667V16.7572V16.7478V16.7383V16.7288V16.7192V16.7097V16.7001V16.6905V16.6808V16.6711V16.6614V16.6517V16.6419V16.6322V16.6224V16.6125V16.6027V16.5928V16.5829V16.5729V16.563V16.553V16.543V16.533V16.5229V16.5128V16.5027V16.4926V16.4825V16.4723V16.4621V16.4519V16.4417V16.4314V16.4212V16.4109V16.4005V16.3902V16.3798V16.3695V16.3591V16.3487V16.3382V16.3278V16.3173V16.3068V16.2963V16.2858V16.2752V16.2647V16.2541V16.2435V16.2329V16.2223V16.2116V16.2009V16.1903V16.1796V16.1689V16.1581V16.1474V16.1366V16.1259V16.1151V16.1043V16.0935V16.0827V16.0718V16.061V16.0501V16.0392V16.0284V16.0175V16.0065V15.9956V15.9847V15.9737V15.9628V15.9518V15.9408V15.9299V15.9189V15.9079V15.8968V15.8858V15.8748V15.8637V15.8527V15.8416V15.8306V15.8195V15.8084V15.7973V15.7862V15.7751V15.764V15.7529V15.7418V15.7306V15.7195V15.7084V15.6972V15.6861V15.6749V15.6637V15.6526V15.6414V15.6302V15.6191V15.6079V15.5967V15.5855V15.5743V15.5631V15.552V15.5408V15.5296V15.5184V15.5072V15.496V15.4848V15.4736V15.4624V15.4512V15.44V15.4288V15.4176V15.4064V15.3952V15.384V15.3728V15.3616V15.3504V15.3392V15.3281V15.3169V15.3057V15.2945V15.2834V15.2722V15.261V15.2499V15.2387V15.2276V15.2164V15.2053V15.1941V15.183V15.1719V15.1608V15.1497V15.1386V15.1275V15.1164V15.1053V15.0942V15.0832V15.0721V15.0611V15.05V15.039V15.028V15.017V15.006V14.995V14.984V14.973V14.9621V14.9511V14.9402V14.9292V14.9183V14.9074V14.8965V14.8856V14.8748V14.8639V14.8531V14.8422V14.8314V14.8206V14.8098V14.799V14.7883V14.7775V14.7668V14.7561V14.7454V14.7347V14.724V14.7134V14.7027V14.6921V14.6815V14.6709V14.6603V14.6498V14.6392V14.6287V14.6182V14.6077V14.5973V14.5868V14.5764V14.566V14.5556V14.5452V14.5349V14.5246V14.5143V14.504V14.4937V14.4835V14.4732V14.463V14.4529V14.4427V14.4326V14.4224V14.4124V14.4023V14.3922V14.3822V14.3722V14.3623V14.3523V14.3424V14.3325V14.3226V14.3128V14.3029V14.2931V14.2834V14.2736V14.2639V14.2542V14.2446V14.2349V14.2253V14.2157V14.2062V14.1966V14.1871V14.1777V14.1682V14.1588V14.1494V14.1401V14.1308V14.1215V14.1122V14.103V14.0938V14.0846V14.0754V14.0663V14.0573V14.0482V14.0392V14.0302V14.0213V14.0124V14.0035V13.9946V13.9858V13.977V13.9683V13.9596V13.9509V13.9422V13.9336V13.925V13.9165V13.908V13.8995V13.8911V13.8827V13.8743V13.866V13.8577V13.8495V13.8413V13.8331V13.825V13.8169V13.8088V13.8008V13.7928V13.7849V13.777V13.7691V13.7613V13.7535V13.7458V13.7381V13.7304V13.7228V13.7152V13.7077V13.7002V13.6927V13.6853V13.6779V13.6706V13.6633V13.6561V13.6489V13.6418V13.6347V13.6276V13.6206V13.6136V13.6067V13.5998V13.5929V13.5862V13.5794V13.5727V13.5661V13.5594V13.5529V13.5464V13.5399V13.5335V13.5271V13.5208V13.5145V13.5083V13.5021V13.496V13.4899V13.4839V13.4779V13.472V13.4661V13.4602V13.4545V13.4487V13.4431V13.4374V13.4319V13.4263V13.4209V13.4154V13.4101V13.4048V13.3995V13.3943V13.3891V13.384V13.379V13.374V13.3691V13.3642V13.3594V13.3546V13.3499V13.3452V13.3406V13.336V13.3315V13.3271V13.3227V13.3184V13.3141V13.3099V13.3058V13.3017V13.2976V13.2937V13.2898V13.2859V13.2821V13.2784V13.2747V13.271V13.2675V13.264V13.2605V13.2572V13.2538V13.2506V13.2474V13.2443V13.2412V13.2382V13.2352V13.2323V13.2295V13.2268V13.2241V13.2214V13.2189V13.2164V13.2139V13.2116V13.2093V13.207V13.2048V13.2027V13.2007V13.1987V13.1968V13.1949V13.1931V13.1914V13.1898V13.1882V13.1867V13.1852V13.1839V13.1826V13.1813V13.1801V13.179V13.178V13.177V13.1762V13.1753V13.1746V13.1739V13.1733V13.1727V13.1723V13.1719V13.1716V13.1713V13.1711V13.171L18.0523 13.171H17.5869V13.0478L17.6479 12.9407C18.4377 11.5535 20.2491 10.9782 21.9428 10.9919ZM18.5177 13.3012V13.3017V13.3058V13.3099V13.3141V13.3184V13.3227V13.3271V13.3315V13.336V13.3406V13.3452V13.3499V13.3546V13.3594V13.3642V13.3691V13.374V13.379V13.384V13.3891V13.3943V13.3995V13.4048V13.4101V13.4154V13.4209V13.4263V13.4319V13.4374V13.4431V13.4487V13.4545V13.4602V13.4661V13.472V13.4779V13.4839V13.4899V13.496V13.5021V13.5083V13.5145V13.5208V13.5271V13.5335V13.5399V13.5464V13.5529V13.5594V13.5661V13.5727V13.5794V13.5862V13.5929V13.5998V13.6067V13.6136V13.6206V13.6276V13.6347V13.6418V13.6489V13.6561V13.6633V13.6706V13.6779V13.6853V13.6927V13.7002V13.7077V13.7152V13.7228V13.7304V13.7381V13.7458V13.7535V13.7613V13.7691V13.777V13.7849V13.7928V13.8008V13.8088V13.8169V13.825V13.8331V13.8413V13.8495V13.8577V13.866V13.8743V13.8827V13.8911V13.8995V13.908V13.9165V13.925V13.9336V13.9422V13.9509V13.9596V13.9683V13.977V13.9858V13.9946V14.0035V14.0124V14.0213V14.0302V14.0392V14.0482V14.0573V14.0663V14.0754V14.0846V14.0938V14.103V14.1122V14.1215V14.1308V14.1401V14.1494V14.1588V14.1682V14.1777V14.1871V14.1966V14.2062V14.2157V14.2253V14.2349V14.2446V14.2542V14.2639V14.2736V14.2834V14.2931V14.3029V14.3128V14.3226V14.3325V14.3424V14.3523V14.3623V14.3722V14.3822V14.3922V14.4023V14.4124V14.4224V14.4326V14.4427V14.4529V14.463V14.4732V14.4835V14.4937V14.504V14.5143V14.5246V14.5349V14.5452V14.5556V14.566V14.5764V14.5868V14.5973V14.6077V14.6182V14.6287V14.6392V14.6498V14.6603V14.6709V14.6815V14.6921V14.7027V14.7134V14.724V14.7347V14.7454V14.7561V14.7668V14.7775V14.7883V14.799V14.8098V14.8206V14.8314V14.8422V14.8531V14.8639V14.8748V14.8856V14.8965V14.9074V14.9183V14.9292V14.9402V14.9511V14.9621V14.973V14.984V14.995V15.006V15.017V15.028V15.039V15.05V15.0611V15.0721V15.0832V15.0942V15.1053V15.1164V15.1275V15.1386V15.1497V15.1608V15.1719V15.183V15.1941V15.2053V15.2164V15.2276V15.2387V15.2499V15.261V15.2722V15.2834V15.2945V15.3057V15.3169V15.3281V15.3392V15.3504V15.3616V15.3728V15.384V15.3952V15.4064V15.4176V15.4288V15.44V15.4512V15.4624V15.4736V15.4848V15.496V15.5072V15.5184V15.5296V15.5408V15.552V15.5631V15.5743V15.5855V15.5967V15.6079V15.6191V15.6302V15.6414V15.6526V15.6637V15.6749V15.6861V15.6972V15.7084V15.7195V15.7306V15.7418V15.7529V15.764V15.7751V15.7862V15.7973V15.8084V15.8195V15.8306V15.8416V15.8527V15.8637V15.8748V15.8858V15.8968V15.9079V15.9189V15.9299V15.9408V15.9518V15.9628V15.9737V15.9847V15.9956V16.0065V16.0175V16.0284V16.0392V16.0501V16.061V16.0718V16.0827V16.0935V16.1043V16.1151V16.1259V16.1366V16.1474V16.1581V16.1689V16.1796V16.1903V16.2009V16.2116V16.2223V16.2329V16.2435V16.2541V16.2647V16.2752V16.2858V16.2963V16.3068V16.3173V16.3278V16.3382V16.3487V16.3591V16.3695V16.3798V16.3902V16.4005V16.4109V16.4212V16.4314V16.4417V16.4519V16.4621V16.4723V16.4825V16.4926V16.5027V16.5128V16.5229V16.533V16.543V16.553V16.563V16.5729V16.5829V16.5928V16.6027V16.6125V16.6224V16.6322V16.6419V16.6517V16.6614V16.6711V16.6808V16.6905V16.7001V16.7097V16.7192V16.7288V16.7383V16.7478V16.7572V16.7667V16.776V16.7854V16.7947V16.8041V16.8133V16.8226V16.8318V16.841V16.8501V16.8593V16.8683V16.8774V16.8864V16.8954V16.9044V16.9133V16.9222V16.9311V16.9399V16.9487V16.9575V16.9662V16.9749V16.9835V16.9922V17.0008V17.0093V17.0178V17.0263V17.0348V17.0432V17.0515V17.0599V17.0682V17.0764V17.0847V17.0929V17.101V17.1091V17.1172V17.1252V17.1332V17.1412V17.1491V17.157V17.1648V17.1726V17.1804V17.1881V17.1958V17.2034V17.211V17.2185V17.2261V17.2335V17.241V17.2483V17.2557V17.263V17.2702V17.2774V17.2846V17.2917V17.2988V17.3059V17.3128V17.3198V17.3267V17.3336V17.3404V17.3471V17.3538V17.3605V17.3671V17.3737V17.3803V17.3867V17.3932V17.3996V17.4059V17.4122V17.4185V18.3255L17.7809 17.7965C17.7734 17.7911 17.6994 17.7454 17.5109 17.8579C17.3329 17.9642 17.1587 18.162 17.0715 18.3846C16.9878 18.5983 16.9966 18.7939 17.1026 18.959C17.2155 19.1349 17.4972 19.3677 18.1527 19.5126L18.5177 19.5932V19.967C18.5177 21.2222 18.9793 22.1134 19.6412 22.6929C20.3123 23.2804 21.222 23.5753 22.15 23.5633C23.0782 23.5513 23.9929 23.2325 24.6691 22.6347C25.3367 22.0445 25.7944 21.1636 25.7944 19.967V19.674L26.0586 19.5473C26.5451 19.3141 26.7472 19.0663 26.8254 18.88C26.9019 18.6977 26.8878 18.508 26.8055 18.3241C26.7198 18.1327 26.5696 17.9729 26.425 17.8857C26.3353 17.8317 26.2862 17.8241 26.2684 17.8235L25.5726 18.2693V17.4185V13.3291C24.8541 12.4517 23.4255 11.9347 21.9352 11.9226C20.428 11.9104 19.096 12.4129 18.5177 13.3012ZM32.7284 28.8459H37.5723H40.6104C40.4975 27.4845 40.3373 26.653 39.94 25.4597C39.2947 24.876 38.7459 24.5068 38.1442 24.2395C37.5846 23.9908 36.9614 23.8222 36.1395 23.6624C35.9026 24.1328 35.6764 24.5471 35.4101 24.959C35.031 25.5456 34.5787 26.1148 33.912 26.8356L33.577 27.1978L33.235 26.8423C32.6151 26.1977 32.1856 25.6543 31.7929 25.0393C31.5279 24.6242 31.2821 24.1803 31.0081 23.6599C30.3331 23.7895 29.7937 23.9315 29.2834 24.1431C28.8841 24.3086 28.4935 24.5205 28.0655 24.8125C28.3413 24.9076 28.6112 25.0131 28.8793 25.1324C29.9159 25.5934 30.9031 26.2487 32.1043 27.2558L32.1949 27.3318L32.2383 27.4417C32.4358 27.9428 32.5965 28.4032 32.7284 28.8459ZM6.72069 28.8459H11.4168C11.5367 28.4096 11.6774 27.9568 11.844 27.4635L11.882 27.3512L11.969 27.2707C13.0191 26.2999 13.9438 25.6551 14.9917 25.1882C15.3607 25.0238 15.742 24.8828 16.1456 24.7574C15.7494 24.4936 15.3833 24.298 15.0096 24.1431C14.4993 23.9315 13.9599 23.7895 13.2848 23.6599C13.0109 24.1803 12.7651 24.6242 12.5001 25.0393C12.1074 25.6543 11.6779 26.1977 11.0579 26.8423L10.7159 27.1978L10.3809 26.8356C9.71423 26.1148 9.26201 25.5456 8.88285 24.959C8.61655 24.5471 8.39035 24.1328 8.15346 23.6624C7.33161 23.8222 6.70838 23.9908 6.14875 24.2395C5.54708 24.5068 4.99828 24.876 4.35294 25.4597C3.95565 26.653 3.79548 27.4845 3.68257 28.8459H6.72069ZM23.4447 27.0844C23.0953 26.8119 22.5865 26.6516 22.0249 26.641C21.4797 26.6307 20.9605 26.7634 20.5805 26.9996C20.9701 27.5655 21.4325 28.1471 22.0506 28.8379C22.6169 28.2203 23.052 27.6681 23.4447 27.0844ZM25.627 25.1584C25.2042 25.9677 24.834 26.6437 24.4341 27.272C23.8764 28.1481 23.2662 28.9229 22.381 29.8459L22.0385 30.203L21.703 29.8393C20.7476 28.8033 20.104 27.99 19.5658 27.155C19.1617 26.528 18.8217 25.896 18.4562 25.161C17.19 25.4019 16.232 25.6545 15.3706 26.0383C14.4663 26.4413 13.6471 26.9987 12.6879 27.8741C12.0747 29.7109 11.8432 30.9576 11.6766 33.0936H15.8124V30.798H16.7431V33.0936H26.9035V30.798H27.8342V33.0936H32.4247C32.3086 30.9713 32.1273 29.7282 31.4155 27.8932C30.2974 26.9644 29.4078 26.3861 28.5011 25.9828C27.6503 25.6043 26.7648 25.3711 25.627 25.1584ZM10.6527 12.2809C11.8563 12.2906 13.1873 12.7175 13.8698 13.6587L13.9584 13.7809V13.9319V16.4199C14.038 16.4482 14.1093 16.4838 14.1682 16.5192C14.4051 16.6616 14.6191 16.8945 14.7449 17.1749C14.8742 17.4627 14.9189 17.8238 14.7661 18.1867C14.6453 18.4739 14.4196 18.7179 14.1023 18.9148C14.0355 19.8314 13.6429 20.5601 13.0649 21.0695C12.4377 21.6224 11.6148 21.8985 10.8055 21.9089C9.99614 21.9194 9.16815 21.6643 8.53586 21.1124C7.96668 20.6155 7.5816 19.8998 7.50198 18.9899C7.11068 18.8533 6.81259 18.6456 6.63004 18.3621C6.38919 17.988 6.40979 17.5768 6.53767 17.2513C6.66202 16.9348 6.89903 16.6611 7.17295 16.4981C7.26236 16.4449 7.36961 16.3968 7.48668 16.3667V16.3601V16.3534V16.3467V16.34V16.3332V16.3265V16.3197V16.3129V16.3061V16.2992V16.2924V16.2855V16.2786V16.2717V16.2648V16.2578V16.2509V16.2439V16.2369V16.2299V16.2229V16.2159V16.2088V16.2018V16.1947V16.1876V16.1805V16.1734V16.1662V16.1591V16.1519V16.1447V16.1375V16.1303V16.1231V16.1159V16.1086V16.1014V16.0941V16.0868V16.0795V16.0722V16.0649V16.0576V16.0502V16.0429V16.0355V16.0281V16.0207V16.0133V16.0059V15.9985V15.9911V15.9836V15.9762V15.9687V15.9613V15.9538V15.9463V15.9388V15.9313V15.9238V15.9163V15.9087V15.9012V15.8936V15.8861V15.8785V15.8709V15.8634V15.8558V15.8482V15.8406V15.833V15.8254V15.8177V15.8101V15.8025V15.7948V15.7872V15.7795V15.7719V15.7642V15.7566V15.7489V15.7412V15.7335V15.7258V15.7181V15.7104V15.7027V15.695V15.6873V15.6796V15.6719V15.6642V15.6565V15.6487V15.641V15.6333V15.6256V15.6178V15.6101V15.6024V15.5946V15.5869V15.5791V15.5714V15.5636V15.5559V15.5481V15.5404V15.5327V15.5249V15.5172V15.5094V15.5017V15.4939V15.4862V15.4784V15.4707V15.4629V15.4552V15.4474V15.4397V15.432V15.4242V15.4165V15.4088V15.401V15.3933V15.3856V15.3779V15.3701V15.3624V15.3547V15.347V15.3393V15.3316V15.3239V15.3162V15.3085V15.3008V15.2931V15.2855V15.2778V15.2701V15.2625V15.2548V15.2472V15.2395V15.2319V15.2243V15.2166V15.209V15.2014V15.1938V15.1862V15.1786V15.171V15.1634V15.1559V15.1483V15.1408V15.1332V15.1257V15.1181V15.1106V15.1031V15.0956V15.0881V15.0806V15.0732V15.0657V15.0582V15.0508V15.0434V15.0359V15.0285V15.0211V15.0137V15.0063V14.999V14.9916V14.9843V14.9769V14.9696V14.9623V14.955V14.9477V14.9404V14.9331V14.9259V14.9186V14.9114V14.9042V14.897V14.8898V14.8826V14.8755V14.8683V14.8612V14.8541V14.847V14.8399V14.8328V14.8258V14.8187V14.8117V14.8047V14.7977V14.7907V14.7837V14.7768V14.7699V14.763V14.7561V14.7492V14.7423V14.7355V14.7286V14.7218V14.715V14.7082V14.7015V14.6947V14.688V14.6813V14.6746V14.668V14.6613V14.6547V14.6481V14.6415V14.6349V14.6283V14.6218V14.6153V14.6088V14.6023V14.5959V14.5895V14.5831V14.5767V14.5703V14.5639V14.5576V14.5513V14.545V14.5388V14.5325V14.5263V14.5201V14.514V14.5078V14.5017V14.4956V14.4895V14.4835V14.4774V14.4714V14.4655V14.4595V14.4536V14.4477V14.4418V14.4359V14.4301V14.4243V14.4185V14.4127V14.407V14.4013V14.3956V14.39V14.3843V14.3787V14.3732V14.3676V14.3621V14.3566V14.3511V14.3457V14.3403V14.3349V14.3295V14.3242V14.3189V14.3136V14.3084V14.3032V14.298V14.2928V14.2877V14.2826V14.2776V14.2725V14.2675V14.2625V14.2576V14.2527V14.2478V14.2429V14.2381V14.2333V14.2285V14.2238V14.2191V14.2144V14.2098V14.2052V14.2006V14.1961V14.1916V14.1871V14.1827V14.1783V14.1739V14.1695V14.1652V14.161V14.1567V14.1525V14.1483V14.1442V14.1401V14.136V14.132V14.128V14.124V14.1201V14.1162V14.1124V14.1085V14.1048V14.101V14.0973V14.0936V14.09V14.0864V14.0828V14.0793V14.0758V14.0723V14.0689V14.0655V14.0622V14.0589V14.0556V14.0524V14.0492V14.0461V14.043V14.0399V14.0369V14.0339V14.0309V14.028V14.0251V14.0223V14.0195V14.0168V14.0141V14.0114V14.0088V14.0062V14.0036V14.0011V13.9986V13.9962V13.9938V13.9915V13.9892V13.987V13.9847V13.9826V13.9805V13.9784V13.9763V13.9743V13.9724V13.9705V13.9686V13.9668V13.965V13.9633V13.9616V13.96V13.9584V13.9568V13.9553V13.9538V13.9524V13.951V13.9497V13.9484V13.9472V13.946V13.9449V13.9438V13.9427V13.9417V13.9408V13.9399V13.939V13.9382V13.9375V13.9367V13.9361V13.9355V13.9349V13.9344V13.9339V13.9335V13.9331V13.9328V13.9325V13.9323V13.9321V13.932V13.9319L7.95204 13.9319H7.48668V13.8084L7.54792 13.7011C8.13426 12.6742 9.45801 12.2712 10.6527 12.2809ZM8.41739 14.0663V14.0689V14.0723V14.0758V14.0793V14.0828V14.0864V14.09V14.0936V14.0973V14.101V14.1048V14.1085V14.1124V14.1162V14.1201V14.124V14.128V14.132V14.136V14.1401V14.1442V14.1483V14.1525V14.1567V14.161V14.1652V14.1695V14.1739V14.1783V14.1827V14.1871V14.1916V14.1961V14.2006V14.2052V14.2098V14.2144V14.2191V14.2238V14.2285V14.2333V14.2381V14.2429V14.2478V14.2527V14.2576V14.2625V14.2675V14.2725V14.2776V14.2826V14.2877V14.2928V14.298V14.3032V14.3084V14.3136V14.3189V14.3242V14.3295V14.3349V14.3403V14.3457V14.3511V14.3566V14.3621V14.3676V14.3732V14.3787V14.3843V14.39V14.3956V14.4013V14.407V14.4127V14.4185V14.4243V14.4301V14.4359V14.4418V14.4477V14.4536V14.4595V14.4655V14.4714V14.4774V14.4835V14.4895V14.4956V14.5017V14.5078V14.514V14.5201V14.5263V14.5325V14.5388V14.545V14.5513V14.5576V14.5639V14.5703V14.5767V14.5831V14.5895V14.5959V14.6023V14.6088V14.6153V14.6218V14.6283V14.6349V14.6415V14.6481V14.6547V14.6613V14.668V14.6746V14.6813V14.688V14.6947V14.7015V14.7082V14.715V14.7218V14.7286V14.7355V14.7423V14.7492V14.7561V14.763V14.7699V14.7768V14.7837V14.7907V14.7977V14.8047V14.8117V14.8187V14.8258V14.8328V14.8399V14.847V14.8541V14.8612V14.8683V14.8755V14.8826V14.8898V14.897V14.9042V14.9114V14.9186V14.9259V14.9331V14.9404V14.9477V14.955V14.9623V14.9696V14.9769V14.9843V14.9916V14.999V15.0063V15.0137V15.0211V15.0285V15.0359V15.0434V15.0508V15.0582V15.0657V15.0732V15.0806V15.0881V15.0956V15.1031V15.1106V15.1181V15.1257V15.1332V15.1408V15.1483V15.1559V15.1634V15.171V15.1786V15.1862V15.1938V15.2014V15.209V15.2166V15.2243V15.2319V15.2395V15.2472V15.2548V15.2625V15.2701V15.2778V15.2855V15.2931V15.3008V15.3085V15.3162V15.3239V15.3316V15.3393V15.347V15.3547V15.3624V15.3701V15.3779V15.3856V15.3933V15.401V15.4088V15.4165V15.4242V15.432V15.4397V15.4474V15.4552V15.4629V15.4707V15.4784V15.4862V15.4939V15.5017V15.5094V15.5172V15.5249V15.5327V15.5404V15.5481V15.5559V15.5636V15.5714V15.5791V15.5869V15.5946V15.6024V15.6101V15.6178V15.6256V15.6333V15.641V15.6487V15.6565V15.6642V15.6719V15.6796V15.6873V15.695V15.7027V15.7104V15.7181V15.7258V15.7335V15.7412V15.7489V15.7566V15.7642V15.7719V15.7795V15.7872V15.7948V15.8025V15.8101V15.8177V15.8254V15.833V15.8406V15.8482V15.8558V15.8634V15.8709V15.8785V15.8861V15.8936V15.9012V15.9087V15.9163V15.9238V15.9313V15.9388V15.9463V15.9538V15.9613V15.9687V15.9762V15.9836V15.9911V15.9985V16.0059V16.0133V16.0207V16.0281V16.0355V16.0429V16.0502V16.0576V16.0649V16.0722V16.0795V16.0868V16.0941V16.1014V16.1086V16.1159V16.1231V16.1303V16.1375V16.1447V16.1519V16.1591V16.1662V16.1734V16.1805V16.1876V16.1947V16.2018V16.2088V16.2159V16.2229V16.2299V16.2369V16.2439V16.2509V16.2578V16.2648V16.2717V16.2786V16.2855V16.2924V16.2992V16.3061V16.3129V16.3197V16.3265V16.3332V16.34V16.3467V16.3534V16.3601V16.3668V16.3735V16.3801V16.3867V16.3933V16.3999V16.4064V16.413V16.4195V16.426V16.4325V16.4389V16.4454V16.4518V16.4582V16.4646V16.4709V16.4773V16.4836V16.4899V16.4961V16.5024V16.5086V16.5148V16.521V16.5271V16.5333V16.5394V16.5455V16.5515V16.5576V16.5636V16.5696V16.5755V16.5815V16.5874V16.5933V16.5992V16.605V16.6108V16.6166V16.6224V16.6281V16.6338V16.6395V16.6452V16.6508V16.6564V16.662V16.6676V16.6731V16.6786V16.6841V16.6896V16.695V16.7004V16.7057V16.7111V16.7164V16.7217V16.7269V16.7321V16.7373V16.7425V16.7476V16.7528V16.7578V16.7629V16.7679V16.7729V16.7779V16.7828V16.7877V16.7925V16.7974V16.8022V16.807V16.8117V16.8164V16.8211V16.8258V16.8304V16.835V16.8395V16.844V16.8485V16.853V16.8574V16.8618V16.8661V16.8705V17.776L7.70918 17.2689C7.69648 17.2729 7.67684 17.2813 7.64889 17.2979C7.55244 17.3553 7.45276 17.4673 7.40394 17.5916C7.35867 17.7068 7.36965 17.7916 7.41259 17.8583C7.46274 17.9361 7.61703 18.0833 8.05215 18.1791L8.41739 18.2596V18.6336C8.41739 19.463 8.72161 20.0391 9.1479 20.4112C9.58341 20.7914 10.1792 20.9862 10.7935 20.9783C11.408 20.9704 12.0088 20.7598 12.4494 20.3714C12.8814 19.9906 13.1817 19.4207 13.1817 18.6336V18.3403L13.4463 18.2138C13.7633 18.0622 13.8718 17.9125 13.9083 17.8257C13.9431 17.743 13.9398 17.6539 13.8959 17.5561C13.8486 17.4507 13.7644 17.3624 13.6886 17.3168C13.6829 17.3134 13.6777 17.3104 13.6729 17.3078L13.0277 17.72V16.8705V14.0942C12.5559 13.5555 11.6349 13.2196 10.6452 13.2116C9.63934 13.2035 8.79244 13.5323 8.41739 14.0663ZM13.6332 17.2915C13.633 17.291 13.6363 17.2914 13.6434 17.294C13.6369 17.2933 13.6333 17.292 13.6332 17.2915ZM7.72778 17.2659C7.72762 17.2664 7.72467 17.2669 7.71942 17.2662C7.72532 17.2651 7.72795 17.2654 7.72778 17.2659ZM30.4232 13.6587C31.1057 12.7175 32.4367 12.2906 33.6403 12.2809C34.835 12.2712 36.1587 12.6742 36.745 13.7011L36.8063 13.8084V13.9319V13.932V13.9321V13.9323V13.9325V13.9328V13.9331V13.9335V13.9339V13.9344V13.9349V13.9355V13.9361V13.9367V13.9375V13.9382V13.939V13.9399V13.9408V13.9417V13.9427V13.9438V13.9449V13.946V13.9472V13.9484V13.9497V13.951V13.9524V13.9538V13.9553V13.9568V13.9584V13.96V13.9616V13.9633V13.965V13.9668V13.9686V13.9705V13.9724V13.9743V13.9763V13.9784V13.9805V13.9826V13.9847V13.987V13.9892V13.9915V13.9938V13.9962V13.9986V14.0011V14.0036V14.0062V14.0088V14.0114V14.0141V14.0168V14.0195V14.0223V14.0251V14.028V14.0309V14.0339V14.0369V14.0399V14.043V14.0461V14.0492V14.0524V14.0556V14.0589V14.0622V14.0655V14.0689V14.0723V14.0758V14.0793V14.0828V14.0864V14.09V14.0936V14.0973V14.101V14.1048V14.1085V14.1124V14.1162V14.1201V14.124V14.128V14.132V14.136V14.1401V14.1442V14.1483V14.1525V14.1567V14.161V14.1652V14.1695V14.1739V14.1783V14.1827V14.1871V14.1916V14.1961V14.2006V14.2052V14.2098V14.2144V14.2191V14.2238V14.2285V14.2333V14.2381V14.2429V14.2478V14.2527V14.2576V14.2625V14.2675V14.2725V14.2776V14.2826V14.2877V14.2928V14.298V14.3032V14.3084V14.3136V14.3189V14.3242V14.3295V14.3349V14.3403V14.3457V14.3511V14.3566V14.3621V14.3676V14.3732V14.3787V14.3843V14.39V14.3956V14.4013V14.407V14.4127V14.4185V14.4243V14.4301V14.4359V14.4418V14.4477V14.4536V14.4595V14.4655V14.4714V14.4774V14.4835V14.4895V14.4956V14.5017V14.5078V14.514V14.5201V14.5263V14.5325V14.5388V14.545V14.5513V14.5576V14.5639V14.5703V14.5767V14.5831V14.5895V14.5959V14.6023V14.6088V14.6153V14.6218V14.6283V14.6349V14.6415V14.6481V14.6547V14.6613V14.668V14.6746V14.6813V14.688V14.6947V14.7015V14.7082V14.715V14.7218V14.7286V14.7355V14.7423V14.7492V14.7561V14.763V14.7699V14.7768V14.7837V14.7907V14.7977V14.8047V14.8117V14.8187V14.8258V14.8328V14.8399V14.847V14.8541V14.8612V14.8683V14.8755V14.8826V14.8898V14.897V14.9042V14.9114V14.9186V14.9259V14.9331V14.9404V14.9477V14.955V14.9623V14.9696V14.9769V14.9843V14.9916V14.999V15.0063V15.0137V15.0211V15.0285V15.0359V15.0434V15.0508V15.0582V15.0657V15.0732V15.0806V15.0881V15.0956V15.1031V15.1106V15.1181V15.1257V15.1332V15.1408V15.1483V15.1559V15.1634V15.171V15.1786V15.1862V15.1938V15.2014V15.209V15.2166V15.2243V15.2319V15.2395V15.2472V15.2548V15.2625V15.2701V15.2778V15.2855V15.2931V15.3008V15.3085V15.3162V15.3239V15.3316V15.3393V15.347V15.3547V15.3624V15.3701V15.3779V15.3856V15.3933V15.401V15.4088V15.4165V15.4242V15.432V15.4397V15.4474V15.4552V15.4629V15.4707V15.4784V15.4862V15.4939V15.5017V15.5094V15.5172V15.5249V15.5327V15.5404V15.5481V15.5559V15.5636V15.5714V15.5791V15.5869V15.5946V15.6024V15.6101V15.6178V15.6256V15.6333V15.641V15.6487V15.6565V15.6642V15.6719V15.6796V15.6873V15.695V15.7027V15.7104V15.7181V15.7258V15.7335V15.7412V15.7489V15.7566V15.7642V15.7719V15.7795V15.7872V15.7948V15.8025V15.8101V15.8177V15.8254V15.833V15.8406V15.8482V15.8558V15.8634V15.8709V15.8785V15.8861V15.8936V15.9012V15.9087V15.9163V15.9238V15.9313V15.9388V15.9463V15.9538V15.9613V15.9687V15.9762V15.9836V15.9911V15.9985V16.0059V16.0133V16.0207V16.0281V16.0355V16.0429V16.0502V16.0576V16.0649V16.0722V16.0795V16.0868V16.0941V16.1014V16.1086V16.1159V16.1231V16.1303V16.1375V16.1447V16.1519V16.1591V16.1662V16.1734V16.1805V16.1876V16.1947V16.2018V16.2088V16.2159V16.2229V16.2299V16.2369V16.2439V16.2509V16.2578V16.2648V16.2717V16.2786V16.2855V16.2924V16.2992V16.3061V16.3129V16.3197V16.3265V16.3332V16.34V16.3467V16.3534V16.3601V16.3667C36.9234 16.3968 37.0306 16.4449 37.12 16.4981C37.3939 16.6611 37.631 16.9348 37.7553 17.2513C37.8832 17.5768 37.9038 17.988 37.6629 18.3621C37.4804 18.6456 37.1823 18.8533 36.791 18.9899C36.7114 19.8998 36.3263 20.6155 35.7571 21.1124C35.1248 21.6643 34.2968 21.9194 33.4874 21.9089C32.6782 21.8985 31.8552 21.6224 31.2281 21.0695C30.6501 20.5601 30.2575 19.8314 30.1907 18.9148C29.8734 18.7179 29.6477 18.4739 29.5268 18.1867C29.374 17.8238 29.4188 17.4627 29.548 17.1749C29.6739 16.8945 29.8879 16.6616 30.1248 16.5192C30.1836 16.4838 30.2549 16.4482 30.3345 16.4199V13.9319V13.7809L30.4232 13.6587ZM35.8756 14.0689V14.0663C35.5005 13.5323 34.6536 13.2035 33.6478 13.2116C32.658 13.2196 31.737 13.5555 31.2652 14.0942V16.8705V17.72L30.6201 17.3078L30.6125 17.312L30.6044 17.3168C30.5286 17.3624 30.4444 17.4507 30.3971 17.5561C30.3532 17.6539 30.3498 17.743 30.3846 17.8257C30.4212 17.9125 30.5297 18.0622 30.8467 18.2138L31.1113 18.3403V18.6336C31.1113 19.4207 31.4116 19.9906 31.8435 20.3714C32.2842 20.7598 32.885 20.9704 33.4994 20.9783C34.1138 20.9862 34.7096 20.7914 35.1451 20.4112C35.5714 20.0391 35.8756 19.463 35.8756 18.6336V18.2596L36.2408 18.1791C36.6759 18.0833 36.8302 17.9361 36.8804 17.8583C36.9233 17.7916 36.9343 17.7068 36.889 17.5916C36.8402 17.4673 36.7405 17.3553 36.6441 17.2979C36.6161 17.2813 36.5965 17.2729 36.5838 17.2689L35.8756 17.776V16.8705V16.8661V16.8618V16.8574V16.853V16.8485V16.844V16.8395V16.835V16.8304V16.8258V16.8211V16.8164V16.8117V16.807V16.8022V16.7974V16.7925V16.7877V16.7828V16.7779V16.7729V16.7679V16.7629V16.7578V16.7528V16.7476V16.7425V16.7373V16.7321V16.7269V16.7217V16.7164V16.7111V16.7057V16.7004V16.695V16.6896V16.6841V16.6786V16.6731V16.6676V16.662V16.6564V16.6508V16.6452V16.6395V16.6338V16.6281V16.6224V16.6166V16.6108V16.605V16.5992V16.5933V16.5874V16.5815V16.5755V16.5696V16.5636V16.5576V16.5515V16.5455V16.5394V16.5333V16.5271V16.521V16.5148V16.5086V16.5024V16.4961V16.4899V16.4836V16.4773V16.4709V16.4646V16.4582V16.4518V16.4454V16.4389V16.4325V16.426V16.4195V16.413V16.4064V16.3999V16.3933V16.3867V16.3801V16.3735V16.3668V16.3601V16.3534V16.3467V16.34V16.3332V16.3265V16.3197V16.3129V16.3061V16.2992V16.2924V16.2855V16.2786V16.2717V16.2648V16.2578V16.2509V16.2439V16.2369V16.2299V16.2229V16.2159V16.2088V16.2018V16.1947V16.1876V16.1805V16.1734V16.1662V16.1591V16.1519V16.1447V16.1375V16.1303V16.1231V16.1159V16.1086V16.1014V16.0941V16.0868V16.0795V16.0722V16.0649V16.0576V16.0502V16.0429V16.0355V16.0281V16.0207V16.0133V16.0059V15.9985V15.9911V15.9836V15.9762V15.9687V15.9613V15.9538V15.9463V15.9388V15.9313V15.9238V15.9163V15.9087V15.9012V15.8936V15.8861V15.8785V15.8709V15.8634V15.8558V15.8482V15.8406V15.833V15.8254V15.8177V15.8101V15.8025V15.7948V15.7872V15.7795V15.7719V15.7642V15.7566V15.7489V15.7412V15.7335V15.7258V15.7181V15.7104V15.7027V15.695V15.6873V15.6796V15.6719V15.6642V15.6565V15.6487V15.641V15.6333V15.6256V15.6178V15.6101V15.6024V15.5946V15.5869V15.5791V15.5714V15.5636V15.5559V15.5481V15.5404V15.5327V15.5249V15.5172V15.5094V15.5017V15.4939V15.4862V15.4784V15.4707V15.4629V15.4552V15.4474V15.4397V15.432V15.4242V15.4165V15.4088V15.401V15.3933V15.3856V15.3779V15.3701V15.3624V15.3547V15.347V15.3393V15.3316V15.3239V15.3162V15.3085V15.3008V15.2931V15.2855V15.2778V15.2701V15.2625V15.2548V15.2472V15.2395V15.2319V15.2243V15.2166V15.209V15.2014V15.1938V15.1862V15.1786V15.171V15.1634V15.1559V15.1483V15.1408V15.1332V15.1257V15.1181V15.1106V15.1031V15.0956V15.0881V15.0806V15.0732V15.0657V15.0582V15.0508V15.0434V15.0359V15.0285V15.0211V15.0137V15.0063V14.999V14.9916V14.9843V14.9769V14.9696V14.9623V14.955V14.9477V14.9404V14.9331V14.9259V14.9186V14.9114V14.9042V14.897V14.8898V14.8826V14.8755V14.8683V14.8612V14.8541V14.847V14.8399V14.8328V14.8258V14.8187V14.8117V14.8047V14.7977V14.7907V14.7837V14.7768V14.7699V14.763V14.7561V14.7492V14.7423V14.7355V14.7286V14.7218V14.715V14.7082V14.7015V14.6947V14.688V14.6813V14.6746V14.668V14.6613V14.6547V14.6481V14.6415V14.6349V14.6283V14.6218V14.6153V14.6088V14.6023V14.5959V14.5895V14.5831V14.5767V14.5703V14.5639V14.5576V14.5513V14.545V14.5388V14.5325V14.5263V14.5201V14.514V14.5078V14.5017V14.4956V14.4895V14.4835V14.4774V14.4714V14.4655V14.4595V14.4536V14.4477V14.4418V14.4359V14.4301V14.4243V14.4185V14.4127V14.407V14.4013V14.3956V14.39V14.3843V14.3787V14.3732V14.3676V14.3621V14.3566V14.3511V14.3457V14.3403V14.3349V14.3295V14.3242V14.3189V14.3136V14.3084V14.3032V14.298V14.2928V14.2877V14.2826V14.2776V14.2725V14.2675V14.2625V14.2576V14.2527V14.2478V14.2429V14.2381V14.2333V14.2285V14.2238V14.2191V14.2144V14.2098V14.2052V14.2006V14.1961V14.1916V14.1871V14.1827V14.1783V14.1739V14.1695V14.1652V14.161V14.1567V14.1525V14.1483V14.1442V14.1401V14.136V14.132V14.128V14.124V14.1201V14.1162V14.1124V14.1085V14.1048V14.101V14.0973V14.0936V14.09V14.0864V14.0828V14.0793V14.0758V14.0723V14.0689ZM30.6598 17.2915C30.66 17.291 30.6567 17.2914 30.6496 17.294C30.6561 17.2933 30.6597 17.292 30.6598 17.2915ZM36.567 17.2665C36.5659 17.2663 36.5653 17.2661 36.5652 17.2659C36.565 17.2654 36.5676 17.2651 36.5736 17.2662L36.5697 17.2666L36.567 17.2665Z" fill="#CD3596"/>
</svg>
